<?xml version="1.0" encoding="UTF-8" standalone="no"?>
<svg
   xmlns:dc="http://purl.org/dc/elements/1.1/"
   xmlns:cc="http://creativecommons.org/ns#"
   xmlns:rdf="http://www.w3.org/1999/02/22-rdf-syntax-ns#"
   xmlns:svg="http://www.w3.org/2000/svg"
   xmlns="http://www.w3.org/2000/svg"
   xmlns:sodipodi="http://sodipodi.sourceforge.net/DTD/sodipodi-0.dtd"
   xmlns:inkscape="http://www.inkscape.org/namespaces/inkscape"
   viewBox="0 0 342.45702 342.45702"
   version="1.1"
   id="svg36"
   sodipodi:docname="absence.svg"
   inkscape:version="0.92.0 r15299"
   width="1600"
   height="1600">
  <metadata
     id="metadata42">
    <rdf:RDF>
      <cc:Work
         rdf:about="">
        <dc:format>image/svg+xml</dc:format>
        <dc:type
           rdf:resource="http://purl.org/dc/dcmitype/StillImage" />
        <dc:title></dc:title>
      </cc:Work>
    </rdf:RDF>
  </metadata>
  <defs
     id="defs40" />
  <sodipodi:namedview
     pagecolor="#ffffff"
     bordercolor="#666666"
     borderopacity="1"
     objecttolerance="10"
     gridtolerance="10"
     guidetolerance="10"
     inkscape:pageopacity="0"
     inkscape:pageshadow="2"
     inkscape:window-width="1280"
     inkscape:window-height="657"
     id="namedview38"
     showgrid="false"
     inkscape:zoom="0.06976107"
     inkscape:cx="6204.1751"
     inkscape:cy="-1000.9947"
     inkscape:window-x="-8"
     inkscape:window-y="-8"
     inkscape:window-maximized="1"
     inkscape:current-layer="svg36"
     fit-margin-top="10"
     fit-margin-left="10"
     fit-margin-right="10"
     fit-margin-bottom="10" />
  <path
     inkscape:connector-curvature="0"
     id="path14"
     d="m 63.029788,149.70289 c -3.9447,0 -6.1735,1.9791 -6.1735,5.6775 v 9.8667 h -13.505 v 72.043 h 57.409002 v -72.043 H 87.255288 v -9.8667 c 0,-3.6984 -2.2287,-5.6775 -6.1736,-5.6775 h -18.052 z m -0.11018,5.7877 h 18.273 v 9.7564 h -18.273 z m -33.707,9.7564 c -6.2327,0 -9.9494,5.2221 -9.9494,9.9494 v 52.2 c 0,4.7273 3.3741,9.8943 9.9494,9.8943 h 9.2053 v -72.043 z m 76.480992,0 v 72.043 h 9.2054 c 6.5752,0 9.9493,-5.167 9.9493,-9.8943 v -52.2 c 0,-4.7273 -3.7166,-9.9494 -9.9493,-9.9494 z" />
  <path
     inkscape:connector-curvature="0"
     id="path16"
     d="m 165.92978,91.042881 c -9.2157,0 -11.989,8.002506 -11.989,11.686009 v 1.1208 l -0.0471,61.605 -14.136,53.75 h 14.136 l 0.18497,72.645 c 0,16.687 24.529,16.558 24.529,-0.3583 l 0.0551,-72.287 h 4.6578 l 0.0551,72.287 c 0,16.917 24.529,17.045 24.529,0.3583 l 0.0766,-72.645 h 14.554 l -14.076,-53.75 -0.41731,-61.293 v -1.4326 c 0,-3.683203 -2.7731,-11.686009 -11.989,-11.686009 h -5.7602 c -0.14,0.999963 -3.2797,3.913603 -3.2797,3.913603 l -1.5434,32.257006 -1.9844,-28.398003 1.378,-3.638003 c -1.1836,-1.024 -2.8455,-2.4852 -3.886,-3.3624 -1.0849,0.87817 -2.6508,2.3175 -3.8585,3.3624 l 1.3781,3.638003 -1.9844,28.398003 -1.5434,-32.257006 c 0,0 -3.1397,-2.9136 -3.2797,-3.913603 z" />
  <path
     inkscape:connector-curvature="0"
     id="path18"
     d="m 94.339788,131.35289 c -13.712,0 -12.91,19.461 -0.22471,19.461 h 40.086992 c 12.685,0 13.487,-19.461 -0.2248,-19.461 H 94.340278 Z" />
  <path
     inkscape:connector-curvature="0"
     id="path20"
     d="m 126.26978,135.53289 c -7.8789,11.222 8.509,21.748 15.798,11.366 l 18.038,-25.691 c 12.882,-19.015 17.252,-22.070003 8.5326,-27.203006 -4.3694,-2.2796 -8.194,-7.147006 -19.592,9.087806 l -22.776,32.44 z" />
  <path
     inkscape:connector-curvature="0"
     id="path22"
     d="m 245.15978,177.80289 c 3.3468,13.297 -15.721,17.27 -18.817,4.9679 l -9.7843,-38.874 c -3.0962,-12.302 15.58,-17.829 18.927,-4.532 l 9.6746,38.439 z" />
  <path
     inkscape:connector-curvature="0"
     id="path24"
     d="m 234.26978,135.53289 c 7.879,11.222 -8.509,21.748 -15.798,11.366 l -18.038,-25.691 c -12.882,-19.015 -17.252,-22.070003 -8.5326,-27.203006 4.3694,-2.2796 8.194,-7.147006 19.592,9.087806 l 22.776,32.44 z" />
  <path
     inkscape:connector-curvature="0"
     id="path28"
     d="M 87.019788,65.182836" />
  <path
     inkscape:connector-curvature="0"
     id="path30"
     d="m 180.49978,43.58283 c -11.934,0 -21.608,9.674 -21.608,21.608006 0,0.578312 0.0378,1.141903 0.0827,1.708804 -0.56013,13.998033 -4.2167,14.690034 -4.2167,14.690034 0,0 5.8748,1.393104 9.536,-2.122204 3.9594,4.493108 9.7458,7.331108 16.206,7.331108 6.4448,0 12.219,-2.8274 16.178,-7.303608 3.6616,3.509108 9.5636,2.094604 9.5636,2.094604 0,0 -3.6566,-0.691431 -4.2168,-14.690034 0.0445,-0.566861 0.0826,-1.130402 0.0826,-1.708804 0,-11.934006 -9.6749,-21.608006 -21.608,-21.608006 z" />
  <path
     inkscape:connector-curvature="0"
     id="path32"
     d="m 265.58076,216.77095 c -3.9447,0 -6.1735,1.9791 -6.1735,5.6775 v 9.8667 h -13.505 v 72.043 h 57.409 v -72.043 h -13.505 v -9.8667 c 0,-3.6984 -2.2287,-5.6775 -6.1735,-5.6775 z m -0.11017,5.7877 h 18.273 v 9.7564 h -18.273 z m -33.707,9.7564 c -6.2326,0 -9.9494,5.2221 -9.9494,9.9494 v 52.2 c 0,4.7273 3.3741,9.8943 9.9494,9.8943 h 9.2053 v -72.043 z m 76.481,0 v 72.043 h 9.2054 c 6.5752,0 9.9493,-5.167 9.9493,-9.8943 v -52.2 c 0,-4.7273 -3.7167,-9.9494 -9.9493,-9.9494 z" />
</svg>
