<?xml version="1.0" encoding="UTF-8" standalone="no"?>
<svg
   xmlns:dc="http://purl.org/dc/elements/1.1/"
   xmlns:cc="http://creativecommons.org/ns#"
   xmlns:rdf="http://www.w3.org/1999/02/22-rdf-syntax-ns#"
   xmlns:svg="http://www.w3.org/2000/svg"
   xmlns="http://www.w3.org/2000/svg"
   xmlns:sodipodi="http://sodipodi.sourceforge.net/DTD/sodipodi-0.dtd"
   xmlns:inkscape="http://www.inkscape.org/namespaces/inkscape"
   viewBox="0 0 212.49 227.53"
   version="1.1"
   id="svg44"
   sodipodi:docname="day.svg"
   inkscape:version="0.92.0 r15299">
  <metadata
     id="metadata50">
    <rdf:RDF>
      <cc:Work
         rdf:about="">
        <dc:format>image/svg+xml</dc:format>
        <dc:type
           rdf:resource="http://purl.org/dc/dcmitype/StillImage" />
        <dc:title></dc:title>
      </cc:Work>
    </rdf:RDF>
  </metadata>
  <defs
     id="defs48" />
  <sodipodi:namedview
     pagecolor="#ffffff"
     bordercolor="#666666"
     borderopacity="1"
     objecttolerance="10"
     gridtolerance="10"
     guidetolerance="10"
     inkscape:pageopacity="0"
     inkscape:pageshadow="2"
     inkscape:window-width="1280"
     inkscape:window-height="657"
     id="namedview46"
     showgrid="false"
     inkscape:zoom="1.4668589"
     inkscape:cx="-28.27717"
     inkscape:cy="137.93791"
     inkscape:window-x="-8"
     inkscape:window-y="-8"
     inkscape:window-maximized="1"
     inkscape:current-layer="g34" />
  <g
     fill-rule="evenodd"
     id="g34">
    <path
       d="m37.744 30.028h154.52v181.93h-154.52v-181.93z"
       fill="#fff"
       id="path2"
       style="fill:none" />
    <path
       d="M 37.744,30.028 25,22.529999 V 192.343 L 37.744,211.96 V 30.03 Z"
       id="path4"
       inkscape:connector-curvature="0"
       style="fill:#000000;fill-opacity:1"
       sodipodi:nodetypes="cccccc" />
    <path
       d="M 165.93,22.529999 191.928,30.028 H 37.748 L 25,22.529998 Z"
       id="path6"
       inkscape:connector-curvature="0"
       style="fill:#000000;fill-opacity:1"
       sodipodi:nodetypes="ccccc" />
    <path
       d="m36.652 33.43v5.6288l0.252 15.29 0.63 22.557 1.176 27.346 1.932 29.698 2.898 29.656 3.99 27.136 5.334 22.221 7.644 1.0081 17.388-0.168 23.772-1.0081 26.88-1.5962 26.67-1.7643 23.142-1.6802 16.338-1.2182 6.174-0.4621-0.504-5.2088-1.302-14.156-1.764-20.919-1.974-25.666-1.89-28.186-1.512-28.606-0.84-26.884 0.168-23.019h-154.6z"
       id="path8"
       style="fill:none;fill-opacity:1;stroke:#000000;stroke-opacity:1"
       fill="#808080" />
    <path
       d="m37.786 30.07v5.6288l0.252 15.29 0.63 22.557 1.176 27.346 1.932 29.698 2.898 29.656 3.99 27.136 5.334 22.221 7.644 1.0081 17.346-0.168 23.73-1.0501 26.88-1.5542 26.628-1.8063 23.1-1.6382 16.296-1.2602 6.174-0.4621-0.504-5.2088-1.26-14.114-1.806-20.961-1.932-25.624-1.89-28.186-1.512-28.606-0.84-26.884 0.126-23.019h-154.39z"
       id="path10"
       style="fill:none;stroke-width:1;stroke-miterlimit:4;stroke-dasharray:none;stroke:#000000;stroke-opacity:1"
       stroke-linejoin="round"
       stroke-linecap="round"
       stroke-width=".042"
       stroke="#000"
       fill="#fff" />
    <g
       id="g20"
       fill="#808080"
       style="fill:#000000;fill-opacity:1">
      <path
         d="m65.422 49.434l-0.042-0.7141-0.126-0.7141-0.21-0.6721-0.294-0.6721-0.336-0.6301-0.462-0.5881-0.462-0.5041-0.546-0.4621-0.588-0.4201-0.672-0.336-0.672-0.252-0.672-0.168-0.756-0.126h-0.71399l-0.714 0.042-0.714 0.168-0.672 0.21-0.672 0.294-0.63 0.378-0.546 0.4201-0.546 0.5041-0.462 0.5461-0.378 0.6301-0.294 0.6301-0.252 0.6721-0.168 0.7141-0.084 0.6721v0.7141l0.084 0.7141 0.168 0.7141 0.252 0.6721 0.294 0.6301 0.42 0.6301 0.462 0.5461 0.504 0.5041 0.588 0.4201 0.588 0.3781 0.672 0.294 0.714 0.21 0.672 0.126 0.756 0.084 0.714-0.042 0.714-0.084 0.714-0.21 0.672-0.252 0.63-0.336 0.588-0.3781 0.546-0.4621 0.504-0.5461 0.42-0.5881 0.336-0.6301 0.294-0.6301 0.21-0.7141 0.126-0.6721 0.042-0.7141z"
         id="path12"
         style="fill:#000000;fill-opacity:1" />
      <path
         d="m178.78 49.434l-0.042 0.7141-0.126 0.7141-0.21 0.7141-0.294 0.6301-0.336 0.6721-0.462 0.5461-0.462 0.5461-0.588 0.4621-0.588 0.4201-0.672 0.3361-0.672 0.21-0.714 0.168-0.714 0.126h-0.714l-0.756-0.084-0.672-0.168-0.714-0.252-0.63-0.3361-0.63-0.4201-0.546-0.4621-0.504-0.5041-0.42-0.5881-0.378-0.6301-0.294-0.6721-0.21-0.7141-0.126-0.7141-0.042-0.7141 0.042-0.7141 0.126-0.7141 0.21-0.7141 0.294-0.6721 0.378-0.6301 0.42-0.5881 0.504-0.5041 0.546-0.5041 0.63-0.3781 0.63-0.3361 0.672-0.252 0.714-0.168 0.714-0.084h0.756l0.714 0.084 0.714 0.168 0.672 0.252 0.63 0.3361 0.63 0.3781 0.546 0.4621 0.504 0.5461 0.462 0.5881 0.336 0.6301 0.294 0.6721 0.21 0.6721 0.126 0.7141 0.042 0.7561z"
         id="path14"
         style="fill:#000000;fill-opacity:1" />
      <path
         d="m36.484 75.898l3.486 136.73 1.722 1.176-3.654-133.83-1.554-4.0746z"
         id="path16"
         style="fill:#000000;fill-opacity:1" />
      <path
         d="m36.106 77.242l7.8539 136.52 1.68 1.1762-7.3499-133.66-2.184-4.0326z"
         id="path18"
         style="fill:#000000;fill-opacity:1" />
    </g>
    <g
       stroke="#000"
       stroke-linecap="round"
       stroke-linejoin="round"
       stroke-width=".042"
       id="g32">
      <path
         d="m62.23 94.255h-5.754l16.38-34.445h0.336l16.044 34.445h-6.216l-2.73-5.9229h-15.372l-2.688 5.9229zm4.914-10.796h11.13l-5.586-12.476-5.544 12.476z"
         id="path22" />
      <path
         d="m92.638 94.255v-33.564h9.2819l1.554 0.084 1.554 0.168 1.554 0.252 1.5116 0.4201 1.386 0.5881 1.344 0.7981 1.218 1.0502 0.798 0.8821 0.672 1.0081 0.546 1.0502 0.378 1.0921 0.252 1.1342 0.126 1.1762-0.042 1.2182-0.168 1.2181-0.378 1.2602-0.546 1.2182-0.714 1.0922-0.84 1.0081-1.008 0.8821-1.05 0.7561-1.176 0.6721-1.218 0.5461-1.1756 0.2941-1.134 0.252-1.134 0.168-1.176 0.126-1.134 0.042h-2.352l-1.176-0.042v13.148h-5.7539zm5.7539-18.063h1.596l1.764-0.042 1.764-0.168 1.68-0.3361 1.512-0.63 1.1756-0.9662 0.84-1.3862 0.294-1.8483-0.336-1.8482-0.798-1.3442-1.2176-0.8822-1.512-0.588-1.722-0.2941-1.764-0.126-1.722-0.042-1.554 0.042v10.46z"
         id="path24" />
      <path
         d="m120.15 94.255v-33.564h9.072l1.344 0.042 1.386 0.084 1.344 0.21 1.344 0.252 1.302 0.4201 1.218 0.5881 1.218 0.7561 0.84 0.6301 0.756 0.7561 0.63 0.7981 0.588 0.8821 0.42 0.9241 0.336 0.9661 0.21 1.0081 0.084 1.0922-0.126 1.6803-0.378 1.5542-0.63 1.4282-0.882 1.2602-1.05 1.0922-1.26 0.9661-1.428 0.7981-1.512 0.6721 0.462 0.6301 1.218 1.6382 1.722 2.3523 1.974 2.7304 1.974 2.6884 1.722 2.3523 1.218 1.6382 0.504 0.6721h-6.888l-0.462-0.6301-1.134-1.5962-1.638-2.2263-1.848-2.5624-1.89-2.5624-1.638-2.2263-1.134-1.5962-0.42-0.5881h-2.856v13.988h-5.712zm5.712-18.231h1.596l1.764-0.042 1.764-0.168 1.68-0.3361 1.512-0.6301 1.176-0.9661 0.84-1.3862 0.294-1.8483-0.336-1.8483-0.798-1.3442-1.218-0.9241-1.512-0.6301-1.722-0.3361-1.764-0.168-1.722-0.042-1.554 0.042v10.628z"
         id="path26" />
      <path
         d="m150.18 94.255v-33.605h5.922v33.605h-5.922z"
         id="path28" />
      <path
         d="m164.71 94.255v-33.605h5.922v28.354h14.322v5.2508h-20.244z"
         id="path30" />
    </g>
  </g>
  <g
     font-family="Arial"
     font-size="24"
     stroke-width="0"
     text-anchor="middle"
     id="g40">
    <text
       transform="matrix(5.0468 0 0 2.2044 -373.62 -230.68)"
       x="99.2425"
       y="182.472"
       xml:space="preserve"
       id="text36" />
    <text
       transform="matrix(3.4523 0 0 3.2315 -685.65 -287.04)"
       x="226.196"
       y="143.248"
       xml:space="preserve"
       id="text38">2</text>
  </g>
  <text
     transform="matrix(3.6347 0 0 3.2671 -1122 -274.88)"
     x="348.111"
     y="137.886"
     font-family="Arial"
     font-size="24"
     stroke-width="0"
     text-anchor="middle"
     xml:space="preserve"
     id="text42">9</text>
</svg>
