<?xml version="1.0" encoding="UTF-8"?>
<svg viewBox="0 0 354.52 463.62" xmlns="http://www.w3.org/2000/svg" xmlns:xlink="http://www.w3.org/1999/xlink">
 <defs>
  <symbol id="l" width="138.322" height="138.188" viewBox="0 0 138.322 138.188">
   <path d="m136.67 81.629v50.044c0 8.34-20.666 4.989-25.896 5.036-35.376 0.32001-70.755 0.194-106.13 0.59801-4.484 0.050995-3.74-4.697-3.697-7.647 0.125-8.313 0.212-16.628 0.273-24.944 0.156-21.158 0.084-42.316 0.084-63.473v-36c0-5.146 8.066-3.724 11.321-3.724h99.693c4.165 0 24.354-2.984 24.354 4.05v76.06" fill="#fff"/>
   <path d="m4.784 0.646c-6.545 0-4.342 13.481-4.342 17.319v33.806c0 22.804 0.037 45.608-0.242 68.413-0.054 4.51-0.122 9.019-0.193 13.528-0.081 5.178 5.559 4.458 8.97 4.423 17.335-0.185 34.671-0.31499 52.008-0.36699 20.792-0.063004 41.584-0.082001 62.376-0.324 6.083-0.070999 14.183 1.502 14.183-6.552v-116.42c0-3.44 1.462-11.734-2.656-13.481-3.452-1.467-9.152-0.342-12.723-0.342h-63.988c-17.798-1e-3 -35.594-1e-3 -53.393-1e-3m-3.045 133.2c0-42.059 0.438-84.123 0.438-126.18 0-4.561 1.884-5.277 6.048-5.277h90.822c3.653 0 36.749-2.81 36.749 2.695v127.37c0 5.947-20.765 3.347-24.271 3.382-23.665 0.22-47.332 0.15401-70.998 0.302-3.665 0.020996-38.788 3.105-38.788-2.289" fill="#a8a8a8"/>
   <path d="m127.39 98.685c-0.592 9.807-21.065 3.646-26.656 6.219-2.869 1.321-3.149 3.683-3.745 6.4-0.564 2.565-1.637 5.023-2.949 7.289-1.058 1.822-2.299 3.535-3.678 5.127-2.847 3.287-4.023 3.626-8.243 3.738-18.259 0.481-36.523 0.742-54.788 0.92001-4.285 0.042999-16.221 2.584-16.185-4.031 0.188-36.092 0.376-72.181 0.564-108.27 0.022-4.21 3.15-4.137 6.417-4.137h102.25c5.021 0 5.865 2.125 5.931 6.945 0.36 26.6 0.718 53.201 1.086 79.802" fill="#f4f4f4"/>
   <path d="m137.61 30.657c0 5.078-9.771 3.471-12.788 3.471h-117.88c-7.196 0-6.357-5.305-6.357-11.397-1e-3 -3.963-2.769-22.731 3.751-22.731h129.67c6.696 0 3.606 25.875 3.606 30.657" fill="#d82a2a"/>
   <path d="m4.634 28.561c-0.106-0.089001 2.386-13.563 2.533-15.017 0.517-5.031 1.395-6.962 6.609-7.16 16.172-0.62 32.358-1.259 48.543-1.384 20.742-0.163 41.521 0.379 62.239 1.357 4.368 0.205 5.938 1.414 6.277 5.957 0.26099 3.459-0.58601 14.48 2.076 16.961 0.009003 7e-3 1.305-8.396 1.36-9.182 0.30501-4.393 0.517-8.791 0.68901-13.189 0.21399-5.406-5.565-4.301-9.195-4.301h-111.19c-2.87 0-11.378-1.422-11.378 3.337-0.838 2.799 0.184 7.371 0.296 10.254 0.088 2.224-0.754 10.763 1.144 12.367" fill="#ef5656"/>
   <path d="m136.67 33.624h-135.77c-1.005 0-0.705-2.959 1.481-2.997 36.955-0.617 73.913-0.792 110.87-0.333 6.415 0.08 12.83 0.173 19.247 0.286 2.759 0.051001 5.226-0.802 4.165 3.044" fill="#b20d0d"/>
   <linearGradient id="k" x1="-248.78" x2="-247.01" y1="463.82" y2="463.82" gradientTransform="matrix(181.33 0 0 -181.33 45114 84197)" gradientUnits="userSpaceOnUse">
    <stop stop-color="#f4f4f4" offset="0"/>
    <stop stop-color="#6e6e6e" offset="1"/>
   </linearGradient>
   <path d="m37.693 62.636h-14.317c-2.447 0-1.287 3.93-1.287 5.984v50.822c0 1.676 9.475 0.733 11.145 0.733 0.476 0 4.458 0.239 4.458-0.19601v-9.379c0-4.664 0.084999-3.92-5.008-4.046-0.504-0.012001-9.706-0.091003-9.706-0.545 0-1.095 14.714 0.423 14.714-1.214v-13.64c9.99e-4 -9.506 9.99e-4 -19.011 9.99e-4 -28.519" fill="url(#k)"/>
   <linearGradient id="j" x1="-248.6" x2="-246.86" y1="463.86" y2="463.86" gradientTransform="matrix(181.33 0 0 -181.33 45159 84189)" gradientUnits="userSpaceOnUse">
    <stop stop-color="#f4f4f4" offset="0"/>
    <stop stop-color="#6e6e6e" offset="1"/>
   </linearGradient>
   <path d="m115.75 48.751h-14.898c1.156 17.456 0.931 35.295 0.112 52.76 5.013-0.128 10.053-1.119 14.544-3.411-0.175-5.438-0.241-10.878-0.271-16.318-0.064995-10.986-0.212-22.061 0.513-33.031" fill="url(#j)"/>
   <linearGradient id="i" x1="-248.6" x2="-246.85" y1="463.7" y2="463.7" gradientTransform="matrix(181.33 0 0 -181.33 45159 84189)" gradientUnits="userSpaceOnUse">
    <stop stop-color="#fff" offset="0"/>
    <stop stop-color="#737373" offset="1"/>
   </linearGradient>
   <path d="m106.65 105.01c-1.043-0.007004-2.084 0.033997-3.122 0.122h8.65c-1.843-0.043999-3.686-0.122-5.528-0.122" fill="url(#i)"/>
   <path d="m69.808 92.123h-16.385c0.438 0-1.179-14.017-0.147-14.979 1.95-1.816 13.459 0 16.385 0 0.297 9.99e-4 0.147 13.413 0.147 14.979" fill="#ef5656"/>
   <path d="m23.867 92.627c0 1.795 0.156 29.998-0.888 29.998-1.339 0-1.339-59.996 0-59.996 1.044 0 0.888 28.202 0.888 29.998" fill="#a8a8a8"/>
   <path d="m38.618 92.627c0 1.795 0.156 29.998-0.888 29.998-1.338 0-1.338-59.996 0-59.996 1.044 0 0.888 28.202 0.888 29.998" fill="#a8a8a8"/>
   <path d="m53.659 83.517c0 2.214 0.156 37.373-0.888 37.373-1.34 0-1.34-74.747 0-74.747 1.044 0 0.888 35.159 0.888 37.374" fill="#a8a8a8"/>
   <path d="m70.725 83.517c0 2.214 0.156 37.373-0.888 37.373-1.34 0-1.34-74.747 0-74.747 1.044 0 0.888 35.159 0.888 37.374" fill="#a8a8a8"/>
   <path d="m101.39 76.146c0 1.796 0.146 29.989-0.89 29.989-1.347 0-1.347-59.992 0-59.992 1.037 0 0.89 28.209 0.89 30.003" fill="#a8a8a8"/>
   <path d="m85.764 83.517c0 2.214 0.156 37.373-0.888 37.373-1.341 0-1.341-74.747 0-74.747 1.044 0 0.888 35.159 0.888 37.374" fill="#a8a8a8"/>
   <path d="m117 76.146c0 1.796 0.147 29.989-0.89 29.989-1.346 0-1.346-59.992 0-59.992 1.038 0 0.89 28.209 0.89 30.003" fill="#a8a8a8"/>
   <path d="m69.754 61.741c2.75 0 46.772-0.158 46.772 0.888 0 1.34-93.547 1.34-93.547 0 0-1.046 44.024-0.888 46.775-0.888" fill="#a8a8a8"/>
   <path d="m69.754 75.624c2.75 0 46.772-0.157 46.772 0.889 0 1.34-93.547 1.34-93.547 0 0-1.046 44.024-0.889 46.775-0.889" fill="#a8a8a8"/>
   <path d="m69.754 91.533c2.75 0 46.772-0.158 46.772 0.888 0 1.341-93.547 1.339-93.547 0 0-1.046 44.024-0.888 46.775-0.888" fill="#a8a8a8"/>
   <path d="m84.515 47.279c1.983 0 33.313-0.156 33.313 0.888 0 1.339-66.628 1.339-66.628 0 0-1.043 31.332-0.888 33.315-0.888" fill="#a8a8a8"/>
   <path d="m69.757 105.12c2.751 0 46.764-0.147 46.764 0.893 0 1.349-93.542 1.349-93.542 0 0-1.04 44.028-0.893 46.778-0.893" fill="#a8a8a8"/>
   <path d="m54.445 119.88c1.878 0 31.462-0.157 31.462 0.887 0 1.339-62.929 1.339-62.929 0 9.99e-4 -1.044 29.589-0.887 31.467-0.887" fill="#a8a8a8"/>
   <path d="m84.456 134.42c12.902 1.284 25.941-5.427 34.564-14.604 4.806-5.104 7.468-11.811 11.233-17.631 3.541-5.47 2.462 4.834 2.457 6.959-0.014008 6.11 2.796 21.35-4.888 23.437-13.689 3.722-29.418 2.433-43.366 1.839" fill="#dbdbdb"/>
   <path d="m121.75 103.94c-1.747 0.381-3.556 0.47-5.339 0.432-0.148 1.741 4.258 0.015999 5.339-0.432m9.06-28.235c-0.383 2.895-1.247 5.736-2.421 8.404-2.239 5.088 0.16399 10.342-1.153 15.583 4.951-6.498 4.876-16.278 3.574-23.987" fill="#dbdbdb"/>
   <path d="m127.22 86.499c-1.667 3.082-3.865 5.877-6.536 8.152-2.29 1.947-3.9 1.755-4.021 4.945-0.058998 1.593-0.124 3.188-0.253 4.779 3.857 0.084 6.958-0.563 9.716-3.394 2.873-2.945 1.148-10.611 1.094-14.482" fill="#d2d2d2"/>
   <path d="m100.27 105.14c-0.69199 0.379 0.037003 0.302 0 0" fill="#dbdbdb"/>
   <path d="m100.03 101.53c-2.859 0-4.989 1.119-6.345 3.719 1.644 0.017998 5.158 0.68 6.589-0.107 0-0.981-0.19299-2.5-0.244-3.612" fill="#d2d2d2"/>
   <path d="m115.79 104.36c0.030998 0.53899 0.086998 1.534 0 0" fill="#dbdbdb"/>
   <path d="m115.79 103.99c0.021996 0.55901 0.032997 0.407 0 0" fill="#d2d2d2"/>
   <path d="m96.578 112.86c-1.091 3.577-2.999 6.892-5.329 9.801-2.885 3.602-2.947 8.68-6.793 11.764 9.141-2.644 12.345-13.028 12.122-21.565m1.935-6.14c-0.138 0-0.633 0.477 0 0m5.016-1.58c-0.558-0.009003-2.77-0.278-2.833 0.21 0.953 0.073997 1.897 0.004997 2.833-0.21m12.258 0h-3.607c1.201 0.035995 2.403 0.035995 3.607 0" fill="#dbdbdb"/>
   <path d="m98.399 106.72c-5.759 0.084-5.936 0.547-6.89 6.181-0.662 3.91-1.061 7.867-1.964 11.735 2.825-3.049 5.176-6.604 6.609-10.518 0.996-2.712 0.368-4.876 2.245-7.398" fill="#d2d2d2"/>
   <linearGradient id="h" x1="-248.6" x2="-246.86" y1="463.7" y2="463.7" gradientTransform="matrix(181.33 0 0 -181.33 45159 84189)" gradientUnits="userSpaceOnUse">
    <stop stop-color="#dbdbdb" offset="0"/>
    <stop stop-color="#636363" offset="1"/>
   </linearGradient>
   <path d="m107.73 103.75c-0.907 0-6.854 0.006996-7.012 1.389 5.007 0.129 10.049 0 15.064 0v-0.779c-2.704-0.11-5.337-0.61-8.052-0.61" fill="url(#h)"/>
   <linearGradient id="g" x1="-248.6" x2="-246.86" y1="463.72" y2="463.72" gradientTransform="matrix(181.33 0 0 -181.33 45159 84189)" gradientUnits="userSpaceOnUse">
    <stop stop-color="#d2d2d2" offset="0"/>
    <stop stop-color="#5e5e5e" offset="1"/>
   </linearGradient>
   <path d="m100.18 104.2c0.013 0.284 0.014 0.777 0.086998 0.937-0.028-0.312-0.058998-0.624-0.086998-0.937m15.329-6.098c-2.376 1.212-4.921 2.071-7.527 2.62-4.469 0.941-6.752-0.731-7.237 4.179 4.74-2.174 10.092-0.74 15.039-0.543-0.098999-2.085-0.209-4.169-0.275-6.256" fill="url(#g)"/>
   <path d="m100.97 101.51c-0.314 0.007996-0.629 0.012001-0.942 0.016998 0.058998 1.271 0.13 2.543 0.268 3.812 1.026 0.017006 0.646-3.218 0.674-3.829" fill="#909090"/>
   <path d="m116.74 97.434c-2.181 1.259-1.13 5.245-0.851 7.697 1.117-0.036995 0.82-6.685 0.851-7.697" fill="#909090"/>
   <path d="m93.681 105.25c-0.227 0.513-0.452 1.024-0.679 1.537 3.722-0.037994 5.49-0.772 8.853-1.418-2.725-0.048996-5.449-0.087997-8.174-0.119" fill="#909090"/>
   <path d="m92.562 134.12c-1.094 0.040009-2.186 0.068008-3.281 0.085007 1.101 0.17999 2.195 0.15199 3.281-0.085007m39.33-39.093c-0.922 0-4.599 10.449-5.088 11.39-4.499 8.646-10.984 16.568-18.905 22.299 8.118-4.695 13.596-11.317 18.182-19.327 1.621-2.83 3.029-6.117 5.184-8.597 0.51-0.588 1.953-5.765 0.627-5.765" fill="#d0d0d0"/>
   <path d="m132.1 100.19c-3.054 0.001007-9.985 15.934-12.038 18.438-7.371 8.999-17.637 14.432-28.987 15.686 6.483 0.37399 13.432 1.458 19.42-1.321 5.933-2.755 12.438-6.721 15.271-12.908 1.57-3.429 0.854-10.875 4.877-12.76 1.858-0.871 2.503-7.135 1.457-7.135" fill="#bfbfbf"/>
   <path d="m99.575 107.16c0 3.575 21.302 3.201 20.692-1.476-0.257-1.965-20.692-1.255-20.692 1.476" fill="#fff"/>
  </symbol>
 </defs>
 <path d="m82.882 97.304c26.87 0 48.651-21.784 48.651-48.651 0-26.869-21.781-48.653-48.651-48.653s-48.653 21.784-48.653 48.653c0 26.867 21.783 48.651 48.653 48.651z"/>
 <path d="m82.882 48.653"/>
 <path d="m45.918 156.49c-8.75-56 72-73 85-15.75l22 109.68 82.077 0.17c23.963 0 36.423 19.17 36.423 36.903v149.12c0 36.21-51.562 36.04-51.562-0.64899v-116.05h-104.83c-24.442 0-39.778-16.774-43.612-35.944l-25.497-127.48z"/>
 <path d="m181.42 329.7c27.233 0 27.106 40.283 0.37601 40.283h-75.279c-36.597 0-73.097-27.5-82.645-70l-23.452-114c-4.753-25.883 32.5-34.5 38-8l22.24 109.06c6.23 27.797 26.838 42.654 51.759 42.654h69.001z"/>
 <path d="m283.26 81.519l36.208-17.547c5.219-2.349 1.826-9.917-3.655-7.489l-30.765 13.855v-36.402c0-5.716-8.637-5.454-8.637 0l0.13 43.604c0 3.26 3.523 5.609 6.719 3.979z"/>
 <path d="m283.4 144.28c39.281 0 71.123-31.844 71.123-71.125 0-39.28-31.842-71.124-71.123-71.124s-71.125 31.844-71.125 71.124c0 39.281 31.844 71.125 71.125 71.125z"/>
 <path d="m283.4 73.156"/>
 <g fill="#fff">
  <path d="m283.4 132.2c32.609 0 59.044-26.437 59.044-59.045 0-32.61-26.435-59.045-59.044-59.045-32.608 0-59.045 26.435-59.045 59.045 0 32.608 26.437 59.045 59.045 59.045z"/>
  <path d="m283.4 73.156"/>
 </g>
 <path d="m283.26 81.519l36.208-17.547c5.219-2.349 1.826-9.917-3.655-7.489l-30.765 13.855v-36.402c0-5.716-8.637-5.454-8.637 0l0.13 43.604c0 3.26 3.523 5.609 6.719 3.979z"/>
 <use transform="matrix(.4105 0 0 .48306 207.38 22.377)" x="4.62133" y="-100.122" fill="#0c0000" stroke-width="0" xlink:href="#l"/>
</svg>
