<?xml version="1.0" encoding="UTF-8" standalone="no"?>
<svg
   xmlns:dc="http://purl.org/dc/elements/1.1/"
   xmlns:cc="http://creativecommons.org/ns#"
   xmlns:rdf="http://www.w3.org/1999/02/22-rdf-syntax-ns#"
   xmlns:svg="http://www.w3.org/2000/svg"
   xmlns="http://www.w3.org/2000/svg"
   xmlns:sodipodi="http://sodipodi.sourceforge.net/DTD/sodipodi-0.dtd"
   xmlns:inkscape="http://www.inkscape.org/namespaces/inkscape"
   viewBox="0 0 550.99999 551"
   version="1.1"
   id="svg8"
   sodipodi:docname="esculap.svg"
   width="551"
   height="551"
   inkscape:version="0.92.0 r15299">
  <metadata
     id="metadata14">
    <rdf:RDF>
      <cc:Work
         rdf:about="">
        <dc:format>image/svg+xml</dc:format>
        <dc:type
           rdf:resource="http://purl.org/dc/dcmitype/StillImage" />
        <dc:title></dc:title>
      </cc:Work>
    </rdf:RDF>
  </metadata>
  <defs
     id="defs12" />
  <sodipodi:namedview
     pagecolor="#ffffff"
     bordercolor="#666666"
     borderopacity="1"
     objecttolerance="10"
     gridtolerance="10"
     guidetolerance="10"
     inkscape:pageopacity="0"
     inkscape:pageshadow="2"
     inkscape:window-width="1280"
     inkscape:window-height="657"
     id="namedview10"
     showgrid="false"
     fit-margin-top="0"
     fit-margin-left="0"
     fit-margin-right="0"
     fit-margin-bottom="0"
     inkscape:zoom="0.63429569"
     inkscape:cx="94.858598"
     inkscape:cy="229.34404"
     inkscape:window-x="-8"
     inkscape:window-y="-8"
     inkscape:window-maximized="1"
     inkscape:current-layer="svg8" />
  <path
     style="fill:#1a1a1a;stroke-width:1.98099995"
     inkscape:connector-curvature="0"
     id="path4"
     d="m 445.64926,540.18352 c -3.45585,-5.59514 -5.73638,-11.25981 -5.06641,-12.59005 1.58762,-3.15058 11.57499,13.12116 11.44642,18.64894 -0.0684,2.94773 -1.87532,1.23218 -6.38021,-6.05889 z m -42.96591,9.3216 c 0.97719,-2.04063 3.81303,-4.97865 6.30196,-6.52898 7.47867,-4.65793 19.2054,-22.74188 26.92575,-41.52176 7.87963,-19.16697 8.15043,-35.71545 0.86857,-53.0908 -7.97669,-19.03187 -27.03075,-31.24434 -42.68659,-27.36158 -4.01152,0.99532 -5.7554,-0.54671 -11.85173,-10.47909 -8.39944,-13.68455 -7.80098,-14.45496 11.68077,-15.03539 17.90864,-0.53359 38.85732,7.08346 49.14465,17.8698 9.12211,9.56388 18.14814,28.75422 20.4459,43.47107 3.04955,19.53424 -9.49889,48.26904 -32.04664,73.3802 -9.62251,10.71721 -31.79108,25.57867 -28.78393,19.29395 z m 14.97953,-53.11061 c -4.06125,-5.31107 -20.33298,-29.67935 -36.16117,-54.15262 -15.82819,-24.47327 -37.63504,-57.68474 -48.46121,-73.80216 l -19.6844,-29.30691 8.81307,-4.56026 8.81307,-4.56026 9.81031,16.95062 c 5.39565,9.32279 17.10376,30.71739 26.01846,47.54202 8.91469,16.82463 26.3473,48.38593 38.73845,70.13731 22.13173,38.84542 26.70586,50.8384 12.11243,31.75344 z m -78.46147,-52.43113 c -36.4603,12.73822 -62.9225,7.57336 -82.90485,-16.18041 -8.6849,-10.32478 -14.46585,-33.97019 -12.22475,-50.00441 3.3158,-23.72247 21.7395,-47.86294 54.20412,-71.02677 27.60722,-19.69787 43.43343,-37.87276 48.1284,-55.2699 2.25002,-8.33922 0.63834,-21.6345 -3.40415,-28.08067 -4.24627,-6.77126 -20.21809,-16.73113 -29.53671,-18.42013 -8.78494,-1.59207 -37.1695,0.50105 -41.32366,3.04737 -1.697,1.0401 -4.73756,-2.21476 -9.84993,-10.54407 l -7.39527,-12.04844 11.71445,-5.4222 c 36.21268,-16.76203 78.29506,-14.11165 99.9355,6.29403 27.04461,25.50142 25.40633,68.96258 -3.92832,104.18079 -6.29522,7.55791 -20.11507,19.63092 -36.59898,31.97532 -20.32109,15.21626 -28.20944,22.40115 -33.88896,30.86597 -13.47397,20.08139 -11.74555,46.35738 3.66108,55.65817 12.33529,7.44539 26.87821,7.11258 54.34081,-1.24397 1.88051,-0.57235 5.31285,3.15177 10.1138,10.97375 l 7.2671,11.83965 -7.45787,4.36137 c -4.10186,2.39879 -13.48486,6.46816 -20.852,9.04187 z M 292.05758,300.69152 c -3.73597,-3.26648 -35.72536,-51.59713 -82.75826,-125.03676 l -43.1759,-67.41541 16.31235,-10.01237 16.31255,-10.01237 12.98505,23.78586 c 56.32182,103.1685 81.43495,149.68436 88.49127,163.91983 l 8.21878,16.57602 -7.00264,5.13831 c -4.56403,3.34888 -7.83188,4.41328 -9.3834,3.05669 z m -76.9262,-56.74773 c -37.35968,16.3896 -72.59374,18.76225 -99.28772,6.68647 -5.25242,-2.37601 -14.99815,-9.95215 -21.656287,-16.83593 -20.52514,-21.21849 -26.12939,-41.21668 -19.61012,-69.97684 8.81843,-38.90288 28.266887,-58.46723 112.465337,-113.14085 20.19431,-13.11264 37.99558,-25.3152 39.56057,-27.11791 1.56499,-1.80271 9.93352,-4.01787 18.59822,-4.92437 8.66469,-0.90651 19.00116,-2.79777 22.96969,-4.20269 10.30378,-3.64782 11.8547,1.32073 2.79658,8.95947 -11.49257,9.69164 -12.45157,13.22852 -3.42733,12.64195 l 7.50898,-0.48804 -4.39841,5.73737 c -8.14092,10.61935 -19.03008,17.77928 -37.73607,24.81202 -24.74863,9.30555 -77.75029,39.19013 -91.29438,51.47629 -19.25315,17.4635 -32.35964,45.24604 -30.5807,64.82624 1.46471,16.12594 20.26365,33.99396 40.19449,38.20359 15.80283,3.33778 37.30619,-0.70635 54.83804,-10.31329 l 15.75787,-8.63458 8.03315,14.37196 8.03315,14.37195 -8.72076,5.60603 c -4.79639,3.08323 -11.11618,6.65676 -14.0441,7.94104 z M 247.71289,28.4308 c -0.66266,-1.07969 -2.47783,-1.18173 -4.03351,-0.22682 -1.55568,0.9549 -2.83244,2.95466 -2.83699,4.44397 -0.004,1.48932 1.81053,1.59132 4.03351,0.22683 2.22298,-1.3645 3.49983,-3.36434 2.83699,-4.44398 z m 25.88375,-0.4316 c 0.002,-1.16295 5.60326,-5.27283 12.44622,-9.13281 6.84297,-3.85998 13.02171,-8.16865 13.73012,-9.57496 0.7084,-1.40631 2.05944,-1.29999 3.002,0.23576 1.35671,2.2104 -1.50556,4.64643 -13.73447,11.68948 -8.49651,4.89347 -15.44645,7.9454 -15.44407,6.78255 z m -135.0527,36.39889 c -3.91247,-4.31996 -8.05871,-6.06225 -14.47358,-6.08206 -20.47958,-0.063 -25.21021,-22.59529 -8.48145,-40.4025 14.67168,-15.61701 30.76096,-21.18085 45.50753,-15.73389 11.27229,4.16307 15.31689,13.03854 12.89472,28.29462 -1.14341,7.20212 -0.82889,14.52509 0.699,16.27312 2.49844,2.85819 1.09518,4.21101 -13.94228,13.44089 l -16.72023,10.26277 -5.48341,-6.05433 z" />
</svg>
