<?xml version="1.0" encoding="UTF-8" standalone="no"?>
<svg
   xmlns:dc="http://purl.org/dc/elements/1.1/"
   xmlns:cc="http://creativecommons.org/ns#"
   xmlns:rdf="http://www.w3.org/1999/02/22-rdf-syntax-ns#"
   xmlns:svg="http://www.w3.org/2000/svg"
   xmlns="http://www.w3.org/2000/svg"
   xmlns:sodipodi="http://sodipodi.sourceforge.net/DTD/sodipodi-0.dtd"
   xmlns:inkscape="http://www.inkscape.org/namespaces/inkscape"
   viewBox="0 0 350.28601 350.28601"
   version="1.1"
   id="svg10"
   sodipodi:docname="information.svg"
   inkscape:export-filename="C:\Users\Mandelkow\Nextcloud\Dokumente\Freizeit\Programmierung\git\dienstplan-apotheke\img\information.png"
   inkscape:export-xdpi="192"
   inkscape:export-ydpi="192"
   inkscape:version="0.92.0 r15299">
  <metadata
     id="metadata16">
    <rdf:RDF>
      <cc:Work
         rdf:about="">
        <dc:format>image/svg+xml</dc:format>
        <dc:type
           rdf:resource="http://purl.org/dc/dcmitype/StillImage" />
      </cc:Work>
    </rdf:RDF>
  </metadata>
  <defs
     id="defs14" />
  <sodipodi:namedview
     pagecolor="#ffffff"
     bordercolor="#666666"
     borderopacity="1"
     objecttolerance="10"
     gridtolerance="10"
     guidetolerance="10"
     inkscape:pageopacity="0"
     inkscape:pageshadow="2"
     inkscape:window-width="839"
     inkscape:window-height="480"
     id="namedview12"
     showgrid="false"
     inkscape:zoom="0.67373516"
     inkscape:cx="175.14301"
     inkscape:cy="175.14301"
     inkscape:window-x="0"
     inkscape:window-y="0"
     inkscape:window-maximized="0"
     inkscape:current-layer="svg10" />
  <g
     transform="translate(6,6)"
     fill="none"
     stroke="#000"
     stroke-linejoin="round"
     stroke-width="12"
     id="g4">
    <path
       d="m338.29 169.14c0 93.367-75.776 169.14-169.14 169.14s-169.14-75.776-169.14-169.14 75.776-169.14 169.14-169.14 169.14 75.776 169.14 169.14z"
       id="path2" />
  </g>
  <g
     transform="translate(142.1 43.976)"
     id="g8">
    <path
       d="m0 30.61c0-8.4609 3.217-15.678 9.651-21.65s14.142-8.9589 23.122-8.9599c9.115 1e-3 16.89 2.9873 23.324 8.9599s9.651 13.19 9.652 21.65c-1e-3 8.3379-3.218 15.555-9.652 21.651-6.434 5.9727-14.209 8.9587-23.324 8.9587-8.98 0-16.688-2.986-23.122-8.9587-6.434-6.0967-9.651-13.314-9.651-21.651zm62.933 57.301v176.19h-59.716v-176.19h59.716"
       id="path6" />
  </g>
</svg>
