<?xml version="1.0" encoding="UTF-8" standalone="no"?>
<!-- Created with Inkscape (http://www.inkscape.org/) -->

<svg
   xmlns:dc="http://purl.org/dc/elements/1.1/"
   xmlns:cc="http://creativecommons.org/ns#"
   xmlns:rdf="http://www.w3.org/1999/02/22-rdf-syntax-ns#"
   xmlns:svg="http://www.w3.org/2000/svg"
   xmlns="http://www.w3.org/2000/svg"
   xmlns:sodipodi="http://sodipodi.sourceforge.net/DTD/sodipodi-0.dtd"
   xmlns:inkscape="http://www.inkscape.org/namespaces/inkscape"
   version="1.1"
   id="svg2"
   xml:space="preserve"
   width="485.77734"
   height="435.50266"
   viewBox="0 0 485.77734 435.50266"
   sodipodi:docname="month.svg"
   inkscape:version="0.92.0 r15299"><metadata
     id="metadata8"><rdf:RDF><cc:Work
         rdf:about=""><dc:format>image/svg+xml</dc:format><dc:type
           rdf:resource="http://purl.org/dc/dcmitype/StillImage" /><dc:title></dc:title></cc:Work></rdf:RDF></metadata><defs
     id="defs6"><clipPath
       clipPathUnits="userSpaceOnUse"
       id="clipPath18"><path
         d="M 0,326.627 H 364.333 V 0 H 0 Z"
         id="path16"
         inkscape:connector-curvature="0" /></clipPath></defs><sodipodi:namedview
     pagecolor="#ffffff"
     bordercolor="#666666"
     borderopacity="1"
     objecttolerance="10"
     gridtolerance="10"
     guidetolerance="10"
     inkscape:pageopacity="0"
     inkscape:pageshadow="2"
     inkscape:window-width="640"
     inkscape:window-height="480"
     id="namedview4"
     showgrid="false"
     inkscape:zoom="0.54190255"
     inkscape:cx="242.88867"
     inkscape:cy="217.75133"
     inkscape:window-x="0"
     inkscape:window-y="0"
     inkscape:window-maximized="0"
     inkscape:current-layer="g10" /><g
     id="g10"
     inkscape:groupmode="layer"
     inkscape:label="calendar-1559935"
     transform="matrix(1.3333333,0,0,-1.3333333,0,435.50267)"><g
       id="g12"><g
         id="g14"
         clip-path="url(#clipPath18)"><g
           id="g20"
           transform="translate(67.208,263.4448)"><path
             d="m 0,0 c 0,-5.514 -5.372,-9.985 -12,-9.985 h -3.332 c -6.628,0 -12,4.471 -12,9.985 v 52.697 c 0,5.515 5.372,9.985 12,9.985 H -12 c 6.628,0 12,-4.47 12,-9.985 z"
             style="fill:#1d1d1b;fill-opacity:1;fill-rule:nonzero;stroke:none"
             id="path22"
             inkscape:connector-curvature="0" /></g><g
           id="g24"
           transform="translate(67.208,263.4448)"><path
             d="m 0,0 c 0,-5.514 -5.372,-9.985 -12,-9.985 h -3.332 c -6.628,0 -12,4.471 -12,9.985 v 52.697 c 0,5.515 5.372,9.985 12,9.985 H -12 c 6.628,0 12,-4.47 12,-9.985 z"
             style="fill:none;stroke:#1d1d1b;stroke-width:1;stroke-linecap:butt;stroke-linejoin:miter;stroke-miterlimit:10;stroke-dasharray:none;stroke-opacity:1"
             id="path26"
             inkscape:connector-curvature="0" /></g><g
           id="g28"
           transform="translate(343.5015,25.1563)"><path
             d="m 0,0 c 0,-4.922 -4.771,-8.912 -10.658,-8.912 h -301.354 c -5.886,0 -10.656,3.99 -10.656,8.912 v 191.099 c 0,4.922 4.77,8.911 10.656,8.911 H -10.658 C -4.771,200.01 0,196.021 0,191.099 Z m 8.332,256.677 h -21.334 v -21.334 c 0,-6.627 -7.797,-12 -17.414,-12 h -4.838 c -9.617,0 -17.414,5.373 -17.414,12 v 21.334 h -46.001 v -21.334 c 0,-6.627 -7.797,-12 -17.414,-12 h -4.838 c -9.617,0 -17.414,5.373 -17.414,12 v 21.334 h -45.999 v -21.334 c 0,-6.627 -7.797,-12 -17.415,-12 h -4.837 c -9.618,0 -17.414,5.373 -17.414,12 v 21.334 h -46.001 v -21.334 c 0,-6.627 -7.797,-12 -17.415,-12 h -4.837 c -9.618,0 -17.415,5.373 -17.415,12 v 21.334 h -21.333 c -6.628,0 -12,-5.373 -12,-12 V -12.656 c 0,-6.627 5.372,-12 12,-12 H 8.332 c 6.627,0 12,5.373 12,12 v 257.333 c 0,6.627 -5.373,12 -12,12"
             style="fill:#1d1d1b;fill-opacity:1;fill-rule:nonzero;stroke:none"
             id="path30"
             inkscape:connector-curvature="0" /></g><g
           id="g32"
           transform="translate(343.5015,25.1563)"><path
             d="m 0,0 c 0,-4.922 -4.771,-8.912 -10.658,-8.912 h -301.354 c -5.886,0 -10.656,3.99 -10.656,8.912 v 191.099 c 0,4.922 4.77,8.911 10.656,8.911 H -10.658 C -4.771,200.01 0,196.021 0,191.099 Z m 8.332,256.677 h -21.334 v -21.334 c 0,-6.627 -7.797,-12 -17.414,-12 h -4.838 c -9.617,0 -17.414,5.373 -17.414,12 v 21.334 h -46.001 v -21.334 c 0,-6.627 -7.797,-12 -17.414,-12 h -4.838 c -9.617,0 -17.414,5.373 -17.414,12 v 21.334 h -45.999 v -21.334 c 0,-6.627 -7.797,-12 -17.415,-12 h -4.837 c -9.618,0 -17.414,5.373 -17.414,12 v 21.334 h -46.001 v -21.334 c 0,-6.627 -7.797,-12 -17.415,-12 h -4.837 c -9.618,0 -17.415,5.373 -17.415,12 v 21.334 h -21.333 c -6.628,0 -12,-5.373 -12,-12 V -12.656 c 0,-6.627 5.372,-12 12,-12 H 8.332 c 6.627,0 12,5.373 12,12 v 257.333 c 0,6.627 -5.373,12 -12,12 z"
             style="fill:none;stroke:#1d1d1b;stroke-width:1;stroke-linecap:butt;stroke-linejoin:miter;stroke-miterlimit:10;stroke-dasharray:none;stroke-opacity:1"
             id="path34"
             inkscape:connector-curvature="0" /></g><g
           id="g36"
           transform="translate(152.9717,263.4448)"><path
             d="m 0,0 c 0,-5.514 -5.372,-9.985 -12,-9.985 h -3.332 c -6.628,0 -12,4.471 -12,9.985 v 52.697 c 0,5.515 5.372,9.985 12,9.985 H -12 c 6.628,0 12,-4.47 12,-9.985 z"
             style="fill:#1d1d1b;fill-opacity:1;fill-rule:nonzero;stroke:none"
             id="path38"
             inkscape:connector-curvature="0" /></g><g
           id="g40"
           transform="translate(152.9717,263.4448)"><path
             d="m 0,0 c 0,-5.514 -5.372,-9.985 -12,-9.985 h -3.332 c -6.628,0 -12,4.471 -12,9.985 v 52.697 c 0,5.515 5.372,9.985 12,9.985 H -12 c 6.628,0 12,-4.47 12,-9.985 z"
             style="fill:none;stroke:#1d1d1b;stroke-width:1;stroke-linecap:butt;stroke-linejoin:miter;stroke-miterlimit:10;stroke-dasharray:none;stroke-opacity:1"
             id="path42"
             inkscape:connector-curvature="0" /></g><g
           id="g44"
           transform="translate(324.4995,263.4448)"><path
             d="m 0,0 c 0,-5.514 -5.372,-9.985 -12,-9.985 h -3.332 c -6.628,0 -12,4.471 -12,9.985 v 52.697 c 0,5.515 5.372,9.985 12,9.985 H -12 c 6.628,0 12,-4.47 12,-9.985 z"
             style="fill:#1d1d1b;fill-opacity:1;fill-rule:nonzero;stroke:none"
             id="path46"
             inkscape:connector-curvature="0" /></g><g
           id="g48"
           transform="translate(324.4995,263.4448)"><path
             d="m 0,0 c 0,-5.514 -5.372,-9.985 -12,-9.985 h -3.332 c -6.628,0 -12,4.471 -12,9.985 v 52.697 c 0,5.515 5.372,9.985 12,9.985 H -12 c 6.628,0 12,-4.47 12,-9.985 z"
             style="fill:none;stroke:#1d1d1b;stroke-width:1;stroke-linecap:butt;stroke-linejoin:miter;stroke-miterlimit:10;stroke-dasharray:none;stroke-opacity:1"
             id="path50"
             inkscape:connector-curvature="0" /></g><g
           id="g52"
           transform="translate(238.7358,263.4448)"><path
             d="m 0,0 c 0,-5.514 -5.371,-9.985 -12,-9.985 h -3.332 c -6.627,0 -12,4.471 -12,9.985 v 52.697 c 0,5.515 5.373,9.985 12,9.985 H -12 c 6.629,0 12,-4.47 12,-9.985 z"
             style="fill:#1d1d1b;fill-opacity:1;fill-rule:nonzero;stroke:none"
             id="path54"
             inkscape:connector-curvature="0" /></g><g
           id="g56"
           transform="translate(238.7358,263.4448)"><path
             d="m 0,0 c 0,-5.514 -5.371,-9.985 -12,-9.985 h -3.332 c -6.627,0 -12,4.471 -12,9.985 v 52.697 c 0,5.515 5.373,9.985 12,9.985 H -12 c 6.629,0 12,-4.47 12,-9.985 z"
             style="fill:none;stroke:#1d1d1b;stroke-width:1;stroke-linecap:butt;stroke-linejoin:miter;stroke-miterlimit:10;stroke-dasharray:none;stroke-opacity:1"
             id="path58"
             inkscape:connector-curvature="0" /></g><path
           d="M 76,64.5 H 29.333 V 99.595 H 76 Z"
           style="fill:#1d1d1b;fill-opacity:1;fill-rule:nonzero;stroke:#1d1d1b;stroke-width:1;stroke-linecap:butt;stroke-linejoin:miter;stroke-miterlimit:10;stroke-dasharray:none;stroke-opacity:1"
           id="path60"
           inkscape:connector-curvature="0" /><path
           d="M 127.399,64.5 H 80.732 v 35.095 h 46.667 z"
           style="fill:#1d1d1b;fill-opacity:1;fill-rule:nonzero;stroke:#1d1d1b;stroke-width:1;stroke-linecap:butt;stroke-linejoin:miter;stroke-miterlimit:10;stroke-dasharray:none;stroke-opacity:1"
           id="path62"
           inkscape:connector-curvature="0" /><path
           d="m 178.799,64.5 h -46.666 v 35.095 h 46.666 z"
           style="fill:#1d1d1b;fill-opacity:1;fill-rule:nonzero;stroke:#1d1d1b;stroke-width:1;stroke-linecap:butt;stroke-linejoin:miter;stroke-miterlimit:10;stroke-dasharray:none;stroke-opacity:1"
           id="path64"
           inkscape:connector-curvature="0" /><path
           d="M 230.2,64.5 H 183.533 V 99.595 H 230.2 Z"
           style="fill:#1d1d1b;fill-opacity:1;fill-rule:nonzero;stroke:#1d1d1b;stroke-width:1;stroke-linecap:butt;stroke-linejoin:miter;stroke-miterlimit:10;stroke-dasharray:none;stroke-opacity:1"
           id="path66"
           inkscape:connector-curvature="0" /><path
           d="m 281.599,64.5 h -46.666 v 35.095 h 46.666 z"
           style="fill:#1d1d1b;fill-opacity:1;fill-rule:nonzero;stroke:#1d1d1b;stroke-width:1;stroke-linecap:butt;stroke-linejoin:miter;stroke-miterlimit:10;stroke-dasharray:none;stroke-opacity:1"
           id="path68"
           inkscape:connector-curvature="0" /><path
           d="M 333,64.5 H 286.334 V 99.595 H 333 Z"
           style="fill:#1d1d1b;fill-opacity:1;fill-rule:nonzero;stroke:#1d1d1b;stroke-width:1;stroke-linecap:butt;stroke-linejoin:miter;stroke-miterlimit:10;stroke-dasharray:none;stroke-opacity:1"
           id="path70"
           inkscape:connector-curvature="0" /><path
           d="M 75.999,24.831 H 29.332 v 35.094 h 46.667 z"
           style="fill:#1d1d1b;fill-opacity:1;fill-rule:nonzero;stroke:#1d1d1b;stroke-width:1;stroke-linecap:butt;stroke-linejoin:miter;stroke-miterlimit:10;stroke-dasharray:none;stroke-opacity:1"
           id="path72"
           inkscape:connector-curvature="0" /><path
           d="M 127.399,24.831 H 80.732 v 35.094 h 46.667 z"
           style="fill:#1d1d1b;fill-opacity:1;fill-rule:nonzero;stroke:#1d1d1b;stroke-width:1;stroke-linecap:butt;stroke-linejoin:miter;stroke-miterlimit:10;stroke-dasharray:none;stroke-opacity:1"
           id="path74"
           inkscape:connector-curvature="0" /><path
           d="m 178.798,24.831 h -46.666 v 35.094 h 46.666 z"
           style="fill:#1d1d1b;fill-opacity:1;fill-rule:nonzero;stroke:#1d1d1b;stroke-width:1;stroke-linecap:butt;stroke-linejoin:miter;stroke-miterlimit:10;stroke-dasharray:none;stroke-opacity:1"
           id="path76"
           inkscape:connector-curvature="0" /><path
           d="m 230.199,24.831 h -46.666 v 35.094 h 46.666 z"
           style="fill:#1d1d1b;fill-opacity:1;fill-rule:nonzero;stroke:#1d1d1b;stroke-width:1;stroke-linecap:butt;stroke-linejoin:miter;stroke-miterlimit:10;stroke-dasharray:none;stroke-opacity:1"
           id="path78"
           inkscape:connector-curvature="0" /><path
           d="m 281.599,24.831 h -46.666 v 35.094 h 46.666 z"
           style="fill:#1d1d1b;fill-opacity:1;fill-rule:nonzero;stroke:#1d1d1b;stroke-width:1;stroke-linecap:butt;stroke-linejoin:miter;stroke-miterlimit:10;stroke-dasharray:none;stroke-opacity:1"
           id="path80"
           inkscape:connector-curvature="0" /><path
           d="M 76,103.782 H 29.333 v 35.095 H 76 Z"
           style="fill:#1d1d1b;fill-opacity:1;fill-rule:nonzero;stroke:#1d1d1b;stroke-width:1;stroke-linecap:butt;stroke-linejoin:miter;stroke-miterlimit:10;stroke-dasharray:none;stroke-opacity:1"
           id="path82"
           inkscape:connector-curvature="0" /><path
           d="M 127.399,103.782 H 80.732 v 35.095 h 46.667 z"
           style="fill:#1d1d1b;fill-opacity:1;fill-rule:nonzero;stroke:#1d1d1b;stroke-width:1;stroke-linecap:butt;stroke-linejoin:miter;stroke-miterlimit:10;stroke-dasharray:none;stroke-opacity:1"
           id="path84"
           inkscape:connector-curvature="0" /><path
           d="m 178.799,103.782 h -46.666 v 35.095 h 46.666 z"
           style="fill:#1d1d1b;fill-opacity:1;fill-rule:nonzero;stroke:#1d1d1b;stroke-width:1;stroke-linecap:butt;stroke-linejoin:miter;stroke-miterlimit:10;stroke-dasharray:none;stroke-opacity:1"
           id="path86"
           inkscape:connector-curvature="0" /><path
           d="m 230.2,103.782 h -46.667 v 35.095 H 230.2 Z"
           style="fill:#1d1d1b;fill-opacity:1;fill-rule:nonzero;stroke:#1d1d1b;stroke-width:1;stroke-linecap:butt;stroke-linejoin:miter;stroke-miterlimit:10;stroke-dasharray:none;stroke-opacity:1"
           id="path88"
           inkscape:connector-curvature="0" /><path
           d="m 281.599,103.782 h -46.666 v 35.095 h 46.666 z"
           style="fill:#1d1d1b;fill-opacity:1;fill-rule:nonzero;stroke:#1d1d1b;stroke-width:1;stroke-linecap:butt;stroke-linejoin:miter;stroke-miterlimit:10;stroke-dasharray:none;stroke-opacity:1"
           id="path90"
           inkscape:connector-curvature="0" /><path
           d="m 333,103.782 h -46.666 v 35.095 H 333 Z"
           style="fill:#1d1d1b;fill-opacity:1;fill-rule:nonzero;stroke:#1d1d1b;stroke-width:1;stroke-linecap:butt;stroke-linejoin:miter;stroke-miterlimit:10;stroke-dasharray:none;stroke-opacity:1"
           id="path92"
           inkscape:connector-curvature="0" /><path
           d="M 75.999,143.07 H 29.332 v 35.094 h 46.667 z"
           style="fill:#1d1d1b;fill-opacity:1;fill-rule:nonzero;stroke:#1d1d1b;stroke-width:1;stroke-linecap:butt;stroke-linejoin:miter;stroke-miterlimit:10;stroke-dasharray:none;stroke-opacity:1"
           id="path94"
           inkscape:connector-curvature="0" /><path
           d="M 127.398,143.07 H 80.731 v 35.094 h 46.667 z"
           style="fill:#1d1d1b;fill-opacity:1;fill-rule:nonzero;stroke:#1d1d1b;stroke-width:1;stroke-linecap:butt;stroke-linejoin:miter;stroke-miterlimit:10;stroke-dasharray:none;stroke-opacity:1"
           id="path96"
           inkscape:connector-curvature="0" /><path
           d="m 178.798,143.07 h -46.666 v 35.094 h 46.666 z"
           style="fill:#1d1d1b;fill-opacity:1;fill-rule:nonzero;stroke:#1d1d1b;stroke-width:1;stroke-linecap:butt;stroke-linejoin:miter;stroke-miterlimit:10;stroke-dasharray:none;stroke-opacity:1"
           id="path98"
           inkscape:connector-curvature="0" /><path
           d="m 230.199,143.07 h -46.667 v 35.094 h 46.667 z"
           style="fill:#1d1d1b;fill-opacity:1;fill-rule:nonzero;stroke:#1d1d1b;stroke-width:1;stroke-linecap:butt;stroke-linejoin:miter;stroke-miterlimit:10;stroke-dasharray:none;stroke-opacity:1"
           id="path100"
           inkscape:connector-curvature="0" /><path
           d="m 281.598,143.07 h -46.666 v 35.094 h 46.666 z"
           style="fill:#1d1d1b;fill-opacity:1;fill-rule:nonzero;stroke:#1d1d1b;stroke-width:1;stroke-linecap:butt;stroke-linejoin:miter;stroke-miterlimit:10;stroke-dasharray:none;stroke-opacity:1"
           id="path102"
           inkscape:connector-curvature="0" /><path
           d="m 332.999,143.07 h -46.666 v 35.094 h 46.666 z"
           style="fill:#1d1d1b;fill-opacity:1;fill-rule:nonzero;stroke:#1d1d1b;stroke-width:1;stroke-linecap:butt;stroke-linejoin:miter;stroke-miterlimit:10;stroke-dasharray:none;stroke-opacity:1"
           id="path104"
           inkscape:connector-curvature="0" /><path
           d="m 178.798,182.737 h -46.666 v 35.094 h 46.666 z"
           style="fill:#1d1d1b;fill-opacity:1;fill-rule:nonzero;stroke:#1d1d1b;stroke-width:1;stroke-linecap:butt;stroke-linejoin:miter;stroke-miterlimit:10;stroke-dasharray:none;stroke-opacity:1"
           id="path106"
           inkscape:connector-curvature="0" /><path
           d="m 230.199,182.737 h -46.667 v 35.094 h 46.667 z"
           style="fill:#1d1d1b;fill-opacity:1;fill-rule:nonzero;stroke:#1d1d1b;stroke-width:1;stroke-linecap:butt;stroke-linejoin:miter;stroke-miterlimit:10;stroke-dasharray:none;stroke-opacity:1"
           id="path108"
           inkscape:connector-curvature="0" /><path
           d="m 281.598,182.737 h -46.666 v 35.094 h 46.666 z"
           style="fill:#1d1d1b;fill-opacity:1;fill-rule:nonzero;stroke:#1d1d1b;stroke-width:1;stroke-linecap:butt;stroke-linejoin:miter;stroke-miterlimit:10;stroke-dasharray:none;stroke-opacity:1"
           id="path110"
           inkscape:connector-curvature="0" /><path
           d="m 332.999,182.737 h -46.666 v 35.094 h 46.666 z"
           style="fill:#1d1d1b;fill-opacity:1;fill-rule:nonzero;stroke:#1d1d1b;stroke-width:1;stroke-linecap:butt;stroke-linejoin:miter;stroke-miterlimit:10;stroke-dasharray:none;stroke-opacity:1"
           id="path112"
           inkscape:connector-curvature="0" /></g></g></g></svg>