<?xml version="1.0" encoding="UTF-8"?>
<svg version="1.1" viewBox="0 0 325.594 368.981" xml:space="preserve" xmlns="http://www.w3.org/2000/svg">
<path d="m263.41 226.14v-171.3h-201.55l-20.805 12.3v247h212.89v-22.035h30.598c-1e-3 0-21.134-16.965-21.134-65.965zm-14-37h-36.45v-39h36.441v38.999zm-89.19-84v39h-40.75v-39h40.75zm6 0h40.75v39h-40.75v-39zm-90.356 0h37.605v39h-37.611v-39zm0 45.001h37.605v39h-37.611v-38.999zm0 44.998h37.605v31.008c0 2.792 0.059 5.451 0.166 7.994h-37.781v-39.002zm43.606 31.008v-31.008h40.75v31.008c0 2.792 0.059 5.451 0.166 7.994h-40.745c-0.111-2.53-0.171-5.187-0.171-7.994zm0-37.008v-39h40.75v38.999h-40.75zm46.75-38.998h40.75v38.999h-40.75v-38.999zm83.191-6h-36.441v-39h36.441v39zm-135.41 96c1.581 19.828 6.476 31.323 11.354 37.963h-39.126c-0.952-0.84-2.545-2.62-4.217-6.1-2.521-5.24-5.467-14.92-6.04-31.86h38.027zm19.349 37.963c-4.706-4.322-11.4-14.504-13.334-37.963h40.735c1.581 19.828 6.476 31.323 11.354 37.963h-38.755zm46.75 0c-4.706-4.322-11.4-14.504-13.334-37.963h40.735c1.581 19.828 6.476 31.323 11.354 37.963h-38.755zm-13.707-43.963c-0.11-2.53-0.171-5.188-0.171-7.994v-31.008h40.75v31.008c0 2.792 0.059 5.451 0.166 7.994h-40.745zm46.579-7.994v-31.008h36.441v37.006c0 0.672 0.011 1.332 0.018 1.996h-36.288c-0.111-2.53-0.171-5.187-0.171-7.994zm26.976 73.992h-184.9v-225.01l6.805-4.022v163.04c0 54 21.133 57.957 21.133 57.957h156.95v8.035zm14-22.035h-27.099c-4.706-4.322-11.4-14.504-13.334-37.963h36.072c0.635 14.755 3.059 27.463 7.253 37.963h-2.892z"/>
</svg>
