<?xml version="1.0" encoding="UTF-8" standalone="no"?>
<!-- Created with Inkscape (http://www.inkscape.org/) -->

<svg
   xmlns:dc="http://purl.org/dc/elements/1.1/"
   xmlns:cc="http://creativecommons.org/ns#"
   xmlns:rdf="http://www.w3.org/1999/02/22-rdf-syntax-ns#"
   xmlns:svg="http://www.w3.org/2000/svg"
   xmlns="http://www.w3.org/2000/svg"
   xmlns:sodipodi="http://sodipodi.sourceforge.net/DTD/sodipodi-0.dtd"
   xmlns:inkscape="http://www.inkscape.org/namespaces/inkscape"
   id="svg4847"
   sodipodi:docname="read-icon.svg"
   viewBox="0 0 581.98 744.96"
   version="1.1"
   inkscape:version="0.48.5 r10040"
   width="100%"
   height="100%">
  <defs
     id="defs3190" />
  <sodipodi:namedview
     id="base"
     bordercolor="#666666"
     inkscape:pageshadow="2"
     inkscape:window-y="27"
     fit-margin-left="0"
     pagecolor="#ffffff"
     inkscape:window-height="1014"
     inkscape:window-maximized="1"
     inkscape:zoom="0.96791282"
     inkscape:window-x="0"
     showgrid="false"
     borderopacity="1.0"
     inkscape:current-layer="g4885"
     inkscape:cx="-98.287599"
     inkscape:cy="356.47356"
     fit-margin-top="0"
     fit-margin-right="0"
     fit-margin-bottom="0"
     inkscape:window-width="1920"
     inkscape:pageopacity="0.0"
     inkscape:document-units="px" />
  <g
     id="layer1"
     inkscape:label="Layer 1"
     inkscape:groupmode="layer"
     transform="translate(-105.03 -121.31)">
    <g
       id="g4885">
      <g
         id="g4830"
         style="fill:#000000"
         transform="matrix(11.996 0 0 11.996 -1026.7 -3323.3)">
        <path
           id="rect4819"
           sodipodi:nodetypes="ssssssccssssssccs"
           style="fill:#000000"
           inkscape:connector-curvature="0"
           d="m101.62 290.19c-4.0274 0-7.2812 3.2539-7.2812 7.2812v44.531c0 4.0274 3.2539 7.25 7.2812 7.25h29.75c4.0274 0 7.2812-3.2226 7.2812-7.25v-34.844l-4.4375 6v27.156c0 2.4813-1.9874 4.5-4.4688 4.5h-26.5c-2.4813 0-4.4688-2.0187-4.4688-4.5v-41.188c0-2.4813 1.9874-4.4688 4.4688-4.4688h21.127l2.8419-4.4688z" />
      </g>
      <g
         id="g3047"
         transform="matrix(0,-1.4251529,1.4251529,0,-464.37793,1052.7355)"
         style="fill:#000000;fill-opacity:1;stroke:none">
        <path
           style="fill:#000000;fill-opacity:1;stroke:none"
           d="m 552.15997,744.98542 c -14.49527,-14.42865 -27.58079,-28.00268 -29.07893,-30.1645 -2.30126,-3.32072 -2.7239,-4.96734 -2.7239,-10.6124 0,-4.24996 0.50836,-7.29433 1.39677,-8.36481 1.21955,-1.46947 1.10327,-1.99544 -0.9165,-4.14538 l -2.31328,-2.46238 -3.0835,2.32312 c -17.35583,13.07598 -40.8059,20.66026 -63.88011,20.66026 -19.02224,0 -32.72418,-3.36522 -49.90598,-12.257 -29.49859,-15.26586 -50.02828,-42.62306 -56.83988,-75.743 -3.93096,-19.11342 -1.67934,-42.25918 5.92358,-60.89215 13.0896,-32.0795 41.69812,-56.76259 75.6189,-65.24308 5.02857,-1.25718 13.0143,-2.19816 21.5,-2.5334 11.36358,-0.44893 15.16166,-0.19158 24,1.62615 33.11994,6.8116 60.47714,27.34129 75.743,56.83988 8.89178,17.1818 12.257,30.88374 12.257,49.90598 0,23.39761 -7.8802,47.41968 -21.12624,64.40141 l -2.8118,3.60479 2.26994,2.1325 c 1.94358,1.82589 2.76489,1.99055 5.71242,1.14521 4.42619,-1.26942 7.49544,-1.23956 12.45568,0.12117 3.30225,0.9059 8.60059,5.65838 30.37372,27.24443 14.50555,14.38091 27.66805,28.14771 29.25,30.59289 7.30167,12.36085 -1.76683,24.33447 -8.67795,30.97574 -13.49077,12.99499 -13.27611,15.31011 -28.78791,7.07848 z m -80.4742,-65.75235 c 27.00422,-7.60657 47.56322,-28.29304 55.37125,-55.71456 1.74517,-6.12897 2.21685,-10.36901 2.20252,-19.79918 -0.0212,-13.96005 -1.58677,-20.94536 -7.4134,-33.07771 -20.595,-42.88338 -73.8391,-58.01943 -112.76508,-32.05647 -33.1972,22.14197 -44.931,64.18355 -27.71354,99.29616 10.89124,22.2112 33.1074,38.87363 57.72717,43.29621 7.83886,1.40813 24.14218,0.43544 32.59108,-1.94445 z"
           id="path3049"
           inkscape:connector-curvature="0"
           sodipodi:nodetypes="ssssscssssssssssscsssscccsssssssss" />
      </g>
    </g>
  </g>
  <metadata
     id="metadata3188">
    <rdf:RDF>
      <cc:Work>
        <dc:format>image/svg+xml</dc:format>
        <dc:type
           rdf:resource="http://purl.org/dc/dcmitype/StillImage" />
        <cc:license
           rdf:resource="http://creativecommons.org/licenses/publicdomain/" />
        <dc:publisher>
          <cc:Agent
             rdf:about="http://openclipart.org/">
            <dc:title>Openclipart</dc:title>
          </cc:Agent>
        </dc:publisher>
        <dc:title></dc:title>
      </cc:Work>
      <cc:License
         rdf:about="http://creativecommons.org/licenses/publicdomain/">
        <cc:permits
           rdf:resource="http://creativecommons.org/ns#Reproduction" />
        <cc:permits
           rdf:resource="http://creativecommons.org/ns#Distribution" />
        <cc:permits
           rdf:resource="http://creativecommons.org/ns#DerivativeWorks" />
      </cc:License>
    </rdf:RDF>
  </metadata>
</svg>
