<?xml version="1.0" encoding="UTF-8" standalone="no"?>
<svg
   xmlns:dc="http://purl.org/dc/elements/1.1/"
   xmlns:cc="http://creativecommons.org/ns#"
   xmlns:rdf="http://www.w3.org/1999/02/22-rdf-syntax-ns#"
   xmlns:svg="http://www.w3.org/2000/svg"
   xmlns="http://www.w3.org/2000/svg"
   xmlns:sodipodi="http://sodipodi.sourceforge.net/DTD/sodipodi-0.dtd"
   xmlns:inkscape="http://www.inkscape.org/namespaces/inkscape"
   viewBox="0 0 427.5311 437.85041"
   version="1.1"
   id="svg4"
   sodipodi:docname="symbols-41709.svg"
   width="427.5311"
   height="437.8504"
   inkscape:version="0.92.0 r15299">
  <metadata
     id="metadata10">
    <rdf:RDF>
      <cc:Work
         rdf:about="">
        <dc:format>image/svg+xml</dc:format>
        <dc:type
           rdf:resource="http://purl.org/dc/dcmitype/StillImage" />
        <dc:title></dc:title>
      </cc:Work>
    </rdf:RDF>
  </metadata>
  <defs
     id="defs8" />
  <sodipodi:namedview
     pagecolor="#ffffff"
     bordercolor="#666666"
     borderopacity="1"
     objecttolerance="10"
     gridtolerance="10"
     guidetolerance="10"
     inkscape:pageopacity="0"
     inkscape:pageshadow="2"
     inkscape:window-width="1280"
     inkscape:window-height="657"
     id="namedview6"
     showgrid="false"
     fit-margin-top="50"
     fit-margin-left="50"
     fit-margin-right="50"
     fit-margin-bottom="50"
     inkscape:zoom="0.22425739"
     inkscape:cx="-652.62446"
     inkscape:cy="185.8269"
     inkscape:window-x="-8"
     inkscape:window-y="-8"
     inkscape:window-maximized="1"
     inkscape:current-layer="svg4" />
  <path
     d="m 56.001,54.0024 v 231.09 h 71.719 v -93.812 h 6.3125 c 6.5152,1e-4 13.951,0.18768 17.469,5.375 l 67.516,99.57 -60.844,87.625 h 69.5 l 36.438,-53.906 30.875,53.906 h 74.875 l -61.156,-87.625 57.062,-79.781 h -70.781 l -30.875,46.688 c -26.844,-34.648 -28.956,-45.209 -55.391,-80.038 10.613,-2.4169 18.967,-5.4781 25.062,-9.1562 9.5626,-5.7796 17.098,-13.294 22.562,-22.594 5.464,-9.3 8.1873,-20.367 8.1875,-33.188 -2.3e-4,-14.712 -3.5732,-27.191 -10.719,-37.438 -7.1458,-10.247 -16.554,-17.279 -28.219,-21.062 C 213.929,55.8732 197.068,54.0002 175,54 H 56 Z m 71.719,46.656 h 31.375 c 13.03,1.8e-4 21.896,2.0069 26.625,6 4.729,3.9931 7.0936,9.6954 7.0938,17.156 -1.6e-4,5.0443 -1.5052,9.5182 -4.5,13.406 -2.9951,3.8883 -6.865,6.3044 -11.594,7.25 -9.3528,2.1018 -15.649,3.1564 -18.906,3.1562 h -30.094 v -46.969 z"
     id="path2"
     style="fill:#000000;fill-opacity:1;stroke:#000000;stroke-width:8"
     inkscape:connector-curvature="0" />
</svg>
