<?xml version="1.0" encoding="UTF-8" standalone="no"?>
<!-- Created with Inkscape (http://www.inkscape.org/) -->

<svg
   xmlns:dc="http://purl.org/dc/elements/1.1/"
   xmlns:cc="http://creativecommons.org/ns#"
   xmlns:rdf="http://www.w3.org/1999/02/22-rdf-syntax-ns#"
   xmlns:svg="http://www.w3.org/2000/svg"
   xmlns="http://www.w3.org/2000/svg"
   xmlns:sodipodi="http://sodipodi.sourceforge.net/DTD/sodipodi-0.dtd"
   xmlns:inkscape="http://www.inkscape.org/namespaces/inkscape"
   width="406.04611mm"
   height="392.29709mm"
   viewBox="0 0 406.04611 392.29709"
   version="1.1"
   id="svg8"
   inkscape:version="0.92.0 r15299"
   sodipodi:docname="team.svg">
  <defs
     id="defs2" />
  <sodipodi:namedview
     id="base"
     pagecolor="#ffffff"
     bordercolor="#666666"
     borderopacity="1.0"
     inkscape:pageopacity="0.0"
     inkscape:pageshadow="2"
     inkscape:zoom="0.175"
     inkscape:cx="627.3366"
     inkscape:cy="1115.4007"
     inkscape:document-units="mm"
     inkscape:current-layer="layer1"
     showgrid="false"
     fit-margin-top="0"
     fit-margin-left="0"
     fit-margin-right="0"
     fit-margin-bottom="0"
     inkscape:window-width="1280"
     inkscape:window-height="657"
     inkscape:window-x="-8"
     inkscape:window-y="-8"
     inkscape:window-maximized="1" />
  <metadata
     id="metadata5">
    <rdf:RDF>
      <cc:Work
         rdf:about="">
        <dc:format>image/svg+xml</dc:format>
        <dc:type
           rdf:resource="http://purl.org/dc/dcmitype/StillImage" />
        <dc:title></dc:title>
      </cc:Work>
    </rdf:RDF>
  </metadata>
  <g
     inkscape:label="Ebene 1"
     inkscape:groupmode="layer"
     id="layer1"
     transform="translate(111.59045,72.959266)">
    <path
       style="fill:#000000;stroke-width:0.35277778"
       d="m 40.141054,318.65186 c -3.61853,-1.18982 -6.87917,-5.60613 -6.87917,-9.31739 0,-0.74172 2.35984,-9.80186 5.24408,-20.1337 2.88424,-10.3318 5.34091,-19.53249 5.45927,-20.44594 0.46437,-3.58394 2.96544,-7.03231 6.17736,-8.51708 2.60102,-1.20237 78.568826,-1.37798 81.746746,-0.18898 3.51561,1.31537 6.14218,4.62601 6.69738,8.44162 0.12584,0.86487 2.62065,10.145 5.54401,20.6225 3.65704,13.107 5.29781,19.54139 5.25946,20.62505 -0.1216,3.43567 -3.5191,7.78686 -7.00846,8.97583 -2.55552,0.87073 -99.582916,0.81199 -102.240676,-0.0619 z m -55.73889,-71.88687 c -1.56857,-0.83217 -2.58141,-1.89392 -2.98022,-3.12413 -0.25521,-0.78726 -8.48505,-68.48044 -8.48505,-69.79239 0,-0.0948 -1.39038,-0.2517 -3.08973,-0.34861 -6.20159,-0.35359 -10.68671,-4.53937 -10.66207,-9.95049 0.004,-0.79008 1.40693,-13.81897 3.11851,-28.95314 4.33828,-38.360003 1.41883,-34.924998 29.6832902,-34.924998 23.9859598,0 25.6577198,0.621678 26.8183498,9.973058 2.01058,16.19944 5.99765,53.52345 5.85631,54.82234 -0.56478,5.19017 -4.72861,8.7158 -10.67591,9.03961 -2.87208,0.15639 -2.87208,0.15639 -3.06356,1.43708 -0.10532,0.70439 -1.9669198,16.28256 -4.1368998,34.61819 -4.17793,35.30219 -4.12392,34.98645 -6.26451003,36.62059 -1.58749997,1.21193 -14.08121017,1.66373 -16.11851017,0.58289 z m 199.654726,0.0475 c -3.35242,-1.46022 -2.95399,0.59016 -7.62516,-39.24003 -3.97749,-33.91539 -3.97749,-33.91539 -6.99191,-34.05953 -4.78793,-0.22892 -7.98505,-2.24783 -9.78475,-6.17884 -1.20135,-2.62413 -1.19302,-2.75826 1.82217,-29.38649 1.46099,-12.90285 2.81696,-25.01743 3.01321,-26.92129 0.58812,-5.70516 2.77287,-9.08938 6.89388,-10.67867 3.01689,-1.163495 38.43687,-1.030018 40.81907,0.15382 2.13533,1.06115 4.2242,3.15179 5.17931,5.18373 1.11523,2.37255 7.26023,57.16214 6.70267,59.7619 -1.04595,4.87715 -5.50425,8.13107 -11.14051,8.13107 -2.0192,0 -2.23781,0.0726 -2.39191,0.79375 -0.23808,1.11439 -7.97235,66.61167 -7.96431,67.44557 0.0439,4.55753 -12.05141,7.81769 -18.53176,4.99501 z M 82.471814,244.0098 c -4.0677,-1.89424 -4.44575,-2.91497 -5.63772,-15.2219 C 65.978654,116.70629 64.167784,102.71888 59.307674,93.410739 57.559714,90.06304 52.654914,80.390117 48.408124,71.915361 c -4.2468,-8.474759 -8.03959,-15.975079 -8.42843,-16.667377 -3.49152,-6.21636 -18.08113,-36.129541 -18.37408,-37.672503 -2.23123,-11.7519055 13.95975,-19.7635734 21.73611,-10.7555271 0.95151,1.1022259 18.10323,34.0273811 18.94322,36.3642091 0.0613,0.170586 1.13653,-0.06754 2.38936,-0.529167 4.51519,-1.663703 53.704706,-1.245111 57.208956,0.486837 4.67656,2.311372 7.26899,5.947438 7.86211,11.027269 0.30678,2.627358 3.33626,23.541428 6.18233,42.679907 3.37142,22.671281 -0.20733,29.731581 -14.7307,29.061291 -1.01575,-0.0469 -1.92493,-0.007 -2.0204,0.0883 -0.15987,0.15989 -1.4327,12.5926 -8.86191,86.56149 -3.11009,30.96531 -2.87264,30.00678 -7.87654,31.79547 -2.534126,0.90583 -17.848106,0.64061 -19.966336,-0.34579 z m -172.21688,-9.06089 c -2.6513,-1.33491 -2.36686,0.13395 -6.14247,-31.71976 -1.89849,-16.017 -3.55062,-29.7965 -3.67141,-30.62111 -0.21962,-1.49931 -0.21962,-1.49931 -1.768134,-1.49931 -5.32526,0 -9.58093,-3.15807 -10.24774,-7.60465 -0.14604,-0.97388 0.73542,-10.13319 2.46546,-25.61879 3.84433,-34.41045 1.49421,-31.46223 25.199834,-31.61317 25.55958,-0.16274 23.02641,-3.08563 26.903,31.04188 3.13033,27.55776 3.11016,26.87775 0.88713,29.91418 -1.66322,2.27174 -4.15347,3.5325 -7.47346,3.78357 -2.31581,0.17516 -2.66063,0.29115 -2.80089,0.94213 -0.088,0.40827 -0.8767,6.85423 -1.75272,14.3243 -0.87603,7.47006 -2.07802,17.63006 -2.67108,22.57777 -0.59306,4.94771 -1.45378,12.23243 -1.91272,16.18827 -0.88619,7.63862 -1.05198,8.15005 -3.15071,9.7191 -1.52003,1.1364 -11.70484,1.27275 -13.86409,0.18559 z m 349.296396,0.23414 c -1.43002,-0.63909 -2.90629,-2.44239 -3.15017,-3.84789 -0.10841,-0.62487 -1.70169,-13.91553 -3.54065,-29.53476 -1.83896,-15.61924 -3.42639,-28.89187 -3.5276,-29.49473 -0.18253,-1.0868 -0.20592,-1.09774 -2.75901,-1.29081 -4.61232,-0.34883 -7.71458,-2.59669 -8.93737,-6.47594 -0.5751,-1.82439 -0.54625,-2.17954 2.13638,-26.30297 3.87276,-34.82597 1.58239,-32.03833 26.3235,-32.03833 22.5316,0 22.26589,-0.16708 24.00575,15.09443 4.59786,40.33105 4.69488,41.35675 4.09163,43.26595 -1.21165,3.83487 -4.35459,6.11082 -8.91498,6.45569 -2.56766,0.19421 -2.59165,0.20535 -2.78123,1.29198 -0.10516,0.60286 -1.75913,14.33234 -3.67545,30.50992 -3.75285,31.68163 -3.48601,30.21333 -5.80591,31.94773 -1.24792,0.93299 -11.59478,1.25553 -13.46489,0.41973 z M -86.817406,100.86634 c -7.99378,-1.876629 -13.317414,-11.190495 -10.98405,-19.216972 3.31587,-11.40617 17.75339,-14.938265 25.89083,-6.334114 10.53532,11.139543 0.0755,29.068326 -14.90678,25.551086 z m 348.641366,-0.11895 c -14.46082,-3.987884 -14.97845,-24.653799 -0.7377,-29.451164 14.85576,-5.004544 26.78451,13.587454 16.06832,25.043909 -3.86859,4.135835 -9.96237,5.887685 -15.33062,4.407255 z M -12.505896,93.30656 c -13.03201,-3.50968 -17.46692,-19.681768 -8.03526,-29.300945 9.66485,-9.85701 26.1217802,-5.29294 29.6416202,8.220632 C 12.360504,84.742382 0.10233417,96.702106 -12.505896,93.30656 Z m 199.697216,0.04197 c -9.30639,-2.256998 -15.31102,-12.618745 -12.6026,-21.747296 4.18846,-14.116872 22.21748,-17.536717 31.01132,-5.8824 9.90561,13.127757 -2.35116,31.523999 -18.40872,27.629696 z M 87.296294,31.220583 C 73.834164,28.298486 65.410804,13.447022 69.734254,0.25643161 76.468134,-20.288276 104.69362,-22.473166 114.34186,-3.1965744 123.45308,15.007104 107.3002,35.562643 87.296294,31.220583 Z m -26.35207,-55.146975 c -1.19756,-0.730303 -16.55681,-26.885123 -16.95381,-28.870157 -0.75717,-3.785853 4.02949,-6.840855 7.43953,-4.748142 1.18948,0.729975 16.65124,27.126024 16.7902,28.663927 0.39413,4.362182 -3.68843,7.142113 -7.27592,4.954372 z m 58.853516,-0.01573 c -3.75934,-2.361963 -3.47543,-3.349554 5.38812,-18.744127 9.37447,-16.281953 10.39996,-17.324923 14.54796,-14.795958 3.61763,2.205609 3.20974,3.560801 -5.73095,19.040958 -9.31256,16.12399 -10.19133,17.020959 -14.20513,14.499127 z M 90.789734,-34.454038 c -2.78949,-1.466261 -2.6709,-0.625609 -2.6709,-18.933467 0,-15.122087 0.0462,-16.37613 0.63652,-17.277083 2.116,-3.229422 6.8665,-3.007663 8.50676,0.397105 0.94526,1.962143 0.82712,32.262641 -0.13193,33.835529 -1.38877,2.277646 -4.13839,3.135397 -6.34045,1.977916 z"
       id="path4496"
       inkscape:connector-curvature="0" />
  </g>
</svg>
