<?xml version="1.0" encoding="UTF-8"?>
<!DOCTYPE svg  PUBLIC '-//W3C//DTD SVG 1.1//EN'  'http://www.w3.org/Graphics/SVG/1.1/DTD/svg11.dtd'>
<svg enable-background="new 0 0 100 100" version="1.1" viewBox="0 0 100 100" xml:space="preserve" xmlns="http://www.w3.org/2000/svg">
<path d="m60.627 31.934l-1.752-21.882c0-1.104-0.672-2-1.5-2h-14.44c-0.828 0-1.5 0.896-1.5 2l-2.066 21.731c-5.691 3.525-9.495 9.809-9.495 16.996 0 7.126 3.738 13.365 9.348 16.907l2.213 23.273c0 1.105 0.671 2 1.5 2h14.44c0.828 0 1.5-0.895 1.5-2l1.874-23.409c5.488-3.565 9.125-9.738 9.125-16.771 0-7.084-3.692-13.292-9.247-16.845zm0.442 29.617c-2.991 2.625-6.901 4.229-11.195 4.229-4.213 0-8.061-1.541-11.031-4.079-3.648-3.118-5.969-7.745-5.969-12.921 0-5.249 2.382-9.939 6.121-13.058 2.948-2.459 6.74-3.942 10.879-3.942 4.232 0 8.095 1.556 11.07 4.115 3.625 3.118 5.93 7.729 5.93 12.885 0 5.095-2.253 9.655-5.805 12.771z" fill="#231F20"/>
<path d="m60.737 41.969c-0.315-0.455-0.938-0.57-1.392-0.254l-9.486 6.55-6.656-4.533c-0.457-0.311-1.078-0.192-1.39 0.264-0.311 0.457-0.193 1.079 0.264 1.39l6.05 4.121 1.173 0.799c0.024 0.016 0.05 0.021 0.075 0.035 0.028 0.016 0.054 0.027 0.083 0.039 0.131 0.059 0.267 0.098 0.405 0.098h9e-3c0.087-2e-3 0.173-0.016 0.257-0.039 0.027-8e-3 0.053-0.02 0.08-0.029 0.063-0.023 0.121-0.051 0.178-0.088 0.015-8e-3 0.031-0.012 0.045-0.02l1.151-0.795 8.898-6.145c0.456-0.315 0.57-0.938 0.256-1.393z"/>
</svg>
