<?xml version="1.0" encoding="UTF-8" standalone="no"?>
<svg
   xmlns:dc="http://purl.org/dc/elements/1.1/"
   xmlns:cc="http://creativecommons.org/ns#"
   xmlns:rdf="http://www.w3.org/1999/02/22-rdf-syntax-ns#"
   xmlns:svg="http://www.w3.org/2000/svg"
   xmlns="http://www.w3.org/2000/svg"
   xmlns:sodipodi="http://sodipodi.sourceforge.net/DTD/sodipodi-0.dtd"
   xmlns:inkscape="http://www.inkscape.org/namespaces/inkscape"
   enable-background="new 0 0 100 100"
   version="1.1"
   viewBox="0 0 100 100"
   xml:space="preserve"
   id="svg6"
   sodipodi:docname="watch_overtime.svg"
   inkscape:version="0.92.0 r15299"><metadata
   id="metadata12"><rdf:RDF><cc:Work
       rdf:about=""><dc:format>image/svg+xml</dc:format><dc:type
         rdf:resource="http://purl.org/dc/dcmitype/StillImage" /><dc:title></dc:title></cc:Work></rdf:RDF></metadata><defs
   id="defs10" /><sodipodi:namedview
   pagecolor="#ffffff"
   bordercolor="#666666"
   borderopacity="1"
   objecttolerance="10"
   gridtolerance="10"
   guidetolerance="10"
   inkscape:pageopacity="0"
   inkscape:pageshadow="2"
   inkscape:window-width="1280"
   inkscape:window-height="657"
   id="namedview8"
   showgrid="false"
   inkscape:zoom="6.675088"
   inkscape:cx="69.958141"
   inkscape:cy="53.832165"
   inkscape:window-x="-8"
   inkscape:window-y="-8"
   inkscape:window-maximized="1"
   inkscape:current-layer="svg6" />
<path
   transform="matrix(1.3504696,0,0,1.6473321,-17.594805,-32.575048)"
   style="fill:#ff0000;fill-opacity:1;stroke-width:1;stroke-miterlimit:4;stroke-dasharray:none"
   inkscape:transform-center-x="-2.2985176"
   inkscape:transform-center-y="0.087250811"
   d="m 50.339382,38.449471 c 7.582548,0.710239 7.582548,0.710239 10.735129,5.726236 l -10.735129,6.146294 z"
   id="path834"
   inkscape:connector-curvature="0"
   sodipodi:nodetypes="cccc" /><path
   d="m60.627 31.934l-1.752-21.882c0-1.104-0.672-2-1.5-2h-14.44c-0.828 0-1.5 0.896-1.5 2l-2.066 21.731c-5.691 3.525-9.495 9.809-9.495 16.996 0 7.126 3.738 13.365 9.348 16.907l2.213 23.273c0 1.105 0.671 2 1.5 2h14.44c0.828 0 1.5-0.895 1.5-2l1.874-23.409c5.488-3.565 9.125-9.738 9.125-16.771 0-7.084-3.692-13.292-9.247-16.845zm0.442 29.617c-2.991 2.625-6.901 4.229-11.195 4.229-4.213 0-8.061-1.541-11.031-4.079-3.648-3.118-5.969-7.745-5.969-12.921 0-5.249 2.382-9.939 6.121-13.058 2.948-2.459 6.74-3.942 10.879-3.942 4.232 0 8.095 1.556 11.07 4.115 3.625 3.118 5.93 7.729 5.93 12.885 0 5.095-2.253 9.655-5.805 12.771z"
   fill="#231F20"
   id="path2" />
<path
   d="m60.737 41.969c-0.315-0.455-0.938-0.57-1.392-0.254l-9.486 6.55-6.656-4.533c-0.457-0.311-1.078-0.192-1.39 0.264-0.311 0.457-0.193 1.079 0.264 1.39l6.05 4.121 1.173 0.799c0.024 0.016 0.05 0.021 0.075 0.035 0.028 0.016 0.054 0.027 0.083 0.039 0.131 0.059 0.267 0.098 0.405 0.098h9e-3c0.087-2e-3 0.173-0.016 0.257-0.039 0.027-8e-3 0.053-0.02 0.08-0.029 0.063-0.023 0.121-0.051 0.178-0.088 0.015-8e-3 0.031-0.012 0.045-0.02l1.151-0.795 8.898-6.145c0.456-0.315 0.57-0.938 0.256-1.393z"
   id="path4" />
</svg>